<svg xmlns="http://www.w3.org/2000/svg">
    <g id="facebook">
        <path d="M40 20.1213C40 9.008 31.0467 0 20 0C8.95333 0 0 9.008 0 20.1213C0 30.1667 7.312 38.4907 16.8747 40V25.9387H11.7973V20.12H16.8747V15.688C16.8747 10.6453 19.86 7.85867 24.4293 7.85867C26.616 7.85867 28.9067 8.252 28.9067 8.252V13.204H26.3827C23.8987 13.204 23.1253 14.756 23.1253 16.348V20.1213H28.672L27.7853 25.9373H23.1253V40C32.688 38.4907 40 30.1667 40 20.1213Z"
              fill="black"/>
    </g>
    <g id="vk">
        <g clip-path="url(#clip0_201_1404)">
            <path
                    d="M0.589844 25.3272C0.589844 13.3878 0.589844 7.41816 4.29892 3.70908C8.00801 0 13.9776 0 25.917 0H28.0276C39.967 0 45.9366 0 49.6458 3.70908C53.3548 7.41816 53.3548 13.3878 53.3548 25.3272V27.4378C53.3548 39.3772 53.3548 45.3468 49.6458 49.0559C45.9366 52.765 39.967 52.765 28.0276 52.765H25.917C13.9776 52.765 8.00801 52.765 4.29892 49.0559C0.589844 45.3468 0.589844 39.3772 0.589844 27.4378V25.3272Z"
                    fill="black"/>
            <path
                    d="M28.5746 37.9908C16.3157 37.9908 9.32359 29.672 9.03224 15.8295H15.1729C15.3746 25.9895 19.9015 30.2931 23.4873 31.1805V15.8295H29.2696V24.592C32.8105 24.2148 36.5303 20.2218 37.7854 15.8295H43.5675C42.6039 21.2423 38.5699 25.2353 35.7012 26.8769C38.5699 28.2079 43.1644 31.6907 44.9124 37.9908H38.5474C37.1804 33.7759 33.7742 30.5149 29.2696 30.0713V37.9908H28.5746Z"
                    fill="white"/>
        </g>
    </g>
    <g id="twitter">
        <path fill-rule="evenodd" clip-rule="evenodd"
              d="M0.0390684 53.75H4.571L22.308 33.1886L36.4117 53.75H52L30.9812 23.2584L50.281 0.75H45.6709L28.9106 20.221L15.4711 0.75H0L20.3156 30.268L0.0390684 53.75ZM6.25094 4.21583H13.2442L45.71 50.4789H38.6386L6.25094 4.21583Z"
              fill="black"/>
    </g>
    <g id="instagram">
        <g clip-path="url(#clip0_201_1405)">
            <path fill-rule="evenodd" clip-rule="evenodd"
                  d="M15.8605 0.158295C18.6738 0.0287808 19.5708 0 26.7373 0C33.9037 0 34.8007 0.0311793 37.6117 0.158295C40.4226 0.285411 42.3413 0.733913 44.0202 1.38388C45.7782 2.04824 47.3732 3.08675 48.6923 4.42986C50.0354 5.74659 51.0715 7.33913 51.7335 9.09956C52.3859 10.7784 52.832 12.6972 52.9615 15.5033C53.091 18.3214 53.1198 19.2184 53.1198 26.3825C53.1198 33.5489 53.0886 34.4459 52.9615 37.2593C52.8344 40.0654 52.3859 41.9841 51.7335 43.663C51.0715 45.4237 50.0337 47.0189 48.6923 48.3375C47.3732 49.6806 45.7782 50.7167 44.0202 51.3787C42.3413 52.0311 40.4226 52.4772 37.6165 52.6067C34.8007 52.7362 33.9037 52.765 26.7373 52.765C19.5708 52.765 18.6738 52.7338 15.8605 52.6067C13.0544 52.4796 11.1356 52.0311 9.45676 51.3787C7.69613 50.7166 6.10095 49.6788 4.78226 48.3375C3.44006 47.02 2.40139 45.4256 1.73868 43.6654C1.08871 41.9865 0.642606 40.0678 0.513092 37.2617C0.383578 34.4435 0.354797 33.5465 0.354797 26.3825C0.354797 19.216 0.385977 18.319 0.513092 15.5081C0.640208 12.6972 1.08871 10.7784 1.73868 9.09956C2.40237 7.33932 3.44183 5.74494 4.78466 4.42746C6.10148 3.08555 7.69506 2.04691 9.45436 1.38388C11.1332 0.733913 13.052 0.287809 15.8581 0.158295H15.8605ZM37.3982 4.90714C34.6161 4.78003 33.7814 4.75364 26.7373 4.75364C19.6932 4.75364 18.8585 4.78003 16.0764 4.90714C13.5029 5.02466 12.107 5.45398 11.1764 5.81614C9.94603 6.29582 9.06582 6.86424 8.14243 7.78763C7.26712 8.63919 6.59349 9.67585 6.17094 10.8216C5.80878 11.7522 5.37946 13.1481 5.26194 15.7216C5.13482 18.5037 5.10844 19.3384 5.10844 26.3825C5.10844 33.4266 5.13482 34.2613 5.26194 37.0434C5.37946 39.6169 5.80878 41.0128 6.17094 41.9434C6.59306 43.0874 7.26701 44.1259 8.14243 44.9773C8.99386 45.8528 10.0324 46.5267 11.1764 46.9488C12.107 47.311 13.5029 47.7403 16.0764 47.8578C18.8585 47.985 19.6908 48.0113 26.7373 48.0113C33.7838 48.0113 34.6161 47.985 37.3982 47.8578C39.9717 47.7403 41.3676 47.311 42.2982 46.9488C43.5285 46.4692 44.4088 45.9007 45.3321 44.9773C46.2076 44.1259 46.8815 43.0874 47.3036 41.9434C47.6658 41.0128 48.0951 39.6169 48.2126 37.0434C48.3397 34.2613 48.3661 33.4266 48.3661 26.3825C48.3661 19.3384 48.3397 18.5037 48.2126 15.7216C48.0951 13.1481 47.6658 11.7522 47.3036 10.8216C46.824 9.59123 46.2555 8.71102 45.3321 7.78763C44.4805 6.91238 43.4439 6.23876 42.2982 5.81614C41.3676 5.45398 39.9717 5.02466 37.3982 4.90714ZM23.3675 34.5155C25.2495 35.2989 27.345 35.4046 29.2962 34.8146C31.2474 34.2246 32.9333 32.9755 34.0659 31.2806C35.1985 29.5857 35.7075 27.5502 35.506 25.5217C35.3045 23.4932 34.405 21.5976 32.9612 20.1586C32.0407 19.2388 30.9278 18.5344 29.7025 18.0963C28.4772 17.6582 27.17 17.4973 25.875 17.625C24.5801 17.7527 23.3295 18.166 22.2134 18.835C21.0973 19.5041 20.1434 20.4122 19.4205 21.4942C18.6975 22.5761 18.2234 23.8049 18.0323 25.0921C17.8412 26.3792 17.9379 27.6927 18.3154 28.938C18.6929 30.1833 19.3417 31.3295 20.2153 32.2939C21.0889 33.2583 22.1655 34.0171 23.3675 34.5155ZM17.1484 16.7937C18.4077 15.5344 19.9026 14.5356 21.5478 13.8541C23.1931 13.1726 24.9565 12.8218 26.7373 12.8218C28.5181 12.8218 30.2815 13.1726 31.9267 13.8541C33.572 14.5356 35.0669 15.5344 36.3261 16.7937C37.5853 18.0529 38.5842 19.5478 39.2657 21.193C39.9472 22.8383 40.2979 24.6017 40.2979 26.3825C40.2979 28.1633 39.9472 29.9267 39.2657 31.5719C38.5842 33.2172 37.5853 34.7121 36.3261 35.9713C33.783 38.5144 30.3338 39.9431 26.7373 39.9431C23.1408 39.9431 19.6916 38.5144 17.1484 35.9713C14.6053 33.4282 13.1766 29.979 13.1766 26.3825C13.1766 22.786 14.6053 19.3368 17.1484 16.7937ZM43.3055 14.8413C43.6175 14.547 43.8673 14.193 44.0401 13.8004C44.2129 13.4077 44.3052 12.9844 44.3114 12.5555C44.3177 12.1266 44.2378 11.7007 44.0765 11.3032C43.9153 10.9057 43.6759 10.5446 43.3726 10.2413C43.0692 9.93797 42.7081 9.69858 42.3106 9.53731C41.9131 9.37604 41.4873 9.29617 41.0583 9.30242C40.6294 9.30868 40.2061 9.40093 39.8135 9.57372C39.4208 9.7465 39.0669 9.99631 38.7725 10.3084C38.2 10.9152 37.8866 11.7213 37.8988 12.5555C37.9109 13.3897 38.2477 14.1863 38.8376 14.7762C39.4276 15.3661 40.2242 15.7029 41.0583 15.7151C41.8925 15.7272 42.6986 15.4138 43.3055 14.8413Z"
                  fill="black"/>
        </g>
        <defs>
            <clipPath id="clip0_201_1405">
                <rect width="52.765" height="52.765" fill="white" transform="translate(0.354797)"/>
            </clipPath>
        </defs>
    </g>
    <g id="youtube">
        <g id="7935ec95c421cee6d86eb22ecd1368a9">

            <path style="display: inline;" d="M34.354,0.5h45.959l29.604,91.096h2.863L141.013,0.5h46.353l-53.107,133.338v94.589H88.641V138.08
		L34.354,0.5z M192.193,98.657c0-13.374,5.495-24.003,16.493-31.938c10.984-7.934,25.749-11.901,44.3-11.901
		c16.893,0,30.728,4.192,41.506,12.55c10.805,8.358,16.193,19.112,16.193,32.287v89.2c0,14.771-5.301,26.373-15.868,34.782
		c-10.579,8.408-25.151,12.625-43.684,12.625c-17.859,0-32.143-4.342-42.866-13.024c-10.709-8.683-16.074-20.36-16.074-35.057
		V98.657z M234.205,191.424c0,4.766,1.44,8.409,4.354,11.029c2.907,2.595,7.055,3.867,12.451,3.867c5.532,0,9.93-1.297,13.18-3.942
		c3.256-2.669,4.891-6.313,4.891-10.954V97.359c0-3.768-1.672-6.812-4.99-9.132c-3.318-2.321-7.679-3.494-13.081-3.494
		c-4.972,0-9.027,1.173-12.133,3.494c-3.119,2.32-4.672,5.364-4.672,9.132V191.424z M459.992,57.588v172.711h-40.883v-19.063
		c-7.547,7.037-15.381,12.375-23.541,16.069c-8.146,3.643-16.068,5.489-23.729,5.489c-9.455,0-16.592-2.57-21.383-7.71
		c-4.791-5.141-7.186-12.85-7.186-23.13V57.588h40.895v132.39c0,4.117,0.861,7.061,2.57,8.907c1.723,1.822,4.492,2.745,8.322,2.745
		c3.018,0,6.824-1.223,11.4-3.643c4.604-2.42,8.82-5.514,12.65-9.282V57.588H459.992z M421.68,363.262
		c-2.008-2.221-5.203-3.368-9.594-3.368c-4.59,0-7.883,1.147-9.879,3.368c-1.996,2.245-2.994,5.963-2.994,11.153v10.754h25.473
		v-10.754C424.686,369.225,423.688,365.507,421.68,363.262z M300.855,444.228c2.195,0.898,4.516,1.322,6.961,1.322
		c3.543,0,6.113-0.849,7.785-2.595c1.67-1.722,2.494-4.591,2.494-8.533v-62.178c0-4.191-1.023-7.36-3.068-9.531
		c-2.059-2.171-5.064-3.244-8.957-3.244c-2.059,0-4.092,0.399-6.102,1.198c-2.008,0.823-3.991,2.096-5.95,3.792v75.402
		C296.364,441.907,298.646,443.354,300.855,444.228z M490.496,312.587c0-29.941-30.754-54.219-68.654-54.219
		c-54.068-1.822-109.396-2.62-165.842-2.521c-56.427-0.1-111.756,0.698-165.843,2.521c-37.881,0-68.633,24.277-68.633,54.219
		c-2.277,23.678-3.263,47.381-3.175,71.085c-0.087,23.703,0.898,47.406,3.175,71.11c0,29.916,30.752,54.192,68.633,54.192
		c54.087,1.797,109.416,2.596,165.843,2.521c56.446,0.075,111.774-0.724,165.842-2.521c37.9,0,68.654-24.276,68.654-54.192
		c2.27-23.704,3.254-47.407,3.154-71.11C493.75,359.968,492.766,336.265,490.496,312.587z M121.251,463.465v1.797H88.778v-1.797
		V321.644H55.182v-1.771v-22.605v-1.771h99.672v1.771v22.605v1.771h-33.603V463.465z M236.768,341.33v122.135v1.797h-28.831v-1.797
		v-11.901c-5.327,5.064-10.848,8.882-16.592,11.527c-5.757,2.619-11.334,3.942-16.748,3.942c-6.662,0-11.684-1.847-15.065-5.515
		c-3.387-3.692-5.078-9.231-5.078-16.617v-1.797V341.33v-1.772h28.844v1.772v93.216c0,2.92,0.599,5.065,1.802,6.363
		c1.217,1.322,3.175,1.971,5.876,1.971c2.127,0,4.803-0.873,8.047-2.595c3.231-1.747,6.2-3.967,8.914-6.662V341.33v-1.772h28.831
		V341.33z M347.775,370.847v66.943v1.797c0,8.808-2.258,15.544-6.773,20.235c-4.518,4.641-11.055,6.986-19.588,6.986
		c-5.639,0-10.652-0.898-15.07-2.695c-4.428-1.821-8.532-4.616-12.325-8.384v7.735v1.797h-29.105v-1.797V297.267v-1.771h29.105
		v1.771v52.297c3.893-3.793,8.009-6.662,12.376-8.608c4.379-1.971,8.809-2.969,13.273-2.969c9.107,0,16.094,2.645,20.896,7.935
		c4.803,5.289,7.211,12.999,7.211,23.13V370.847z M454.365,374.64v29.767v1.797h-55.152v21.581c0,6.513,0.947,11.029,2.844,13.549
		c1.908,2.521,5.152,3.793,9.742,3.793c4.779,0,8.135-1.073,10.043-3.219c1.896-2.121,2.844-6.837,2.844-14.123v-6.811v-1.796h29.68
		v1.796v7.51v1.796c0,12.7-3.605,22.257-10.84,28.694c-7.225,6.438-18.016,9.631-32.375,9.631c-12.912,0-23.066-3.418-30.49-10.229
		c-7.41-6.812-11.127-16.193-11.127-28.096v-1.796V374.64v-1.771c0-10.754,4.078-19.512,12.213-26.299
		c8.146-6.762,18.689-10.155,31.588-10.155c13.199,0,23.328,3.144,30.416,9.406c7.061,6.264,10.615,15.296,10.615,27.048V374.64z">

            </path>

        </g>
    </g>
    <g id="github">
        <g clip-path="url(#clip0_201_1397)">
            <path
                    d="M17.7272 42.6755C17.7272 42.8947 17.4815 43.0701 17.1716 43.0701C16.819 43.1029 16.5732 42.9276 16.5732 42.6755C16.5732 42.4563 16.819 42.281 17.1288 42.281C17.4494 42.2481 17.7272 42.4235 17.7272 42.6755ZM14.404 42.1824C14.3292 42.4015 14.5429 42.6536 14.8635 42.7194C15.1413 42.8289 15.4619 42.7194 15.526 42.5002C15.5901 42.281 15.3871 42.0289 15.0665 41.9303C14.7887 41.8536 14.4788 41.9632 14.404 42.1824ZM19.127 41.996C18.8171 42.0728 18.6034 42.281 18.6355 42.5331C18.6675 42.7522 18.9454 42.8947 19.2659 42.818C19.5758 42.7413 19.7895 42.5331 19.7575 42.3139C19.7254 42.1056 19.4369 41.9632 19.127 41.996ZM26.1581 0C11.3373 0 0 11.5401 0 26.7407C0 38.8946 7.45847 49.2949 18.1119 52.9553C19.4796 53.2074 19.9605 52.3416 19.9605 51.6293C19.9605 50.9498 19.9284 47.2017 19.9284 44.9003C19.9284 44.9003 12.4486 46.5442 10.8778 41.6344C10.8778 41.6344 9.65968 38.4452 7.90726 37.6233C7.90726 37.6233 5.46028 35.9027 8.07823 35.9356C8.07823 35.9356 10.7389 36.1547 12.2028 38.7631C14.5429 42.9933 18.4645 41.7769 19.9925 41.0535C20.2383 39.3001 20.9329 38.0836 21.7022 37.3603C15.729 36.6808 9.70242 35.7931 9.70242 25.2502C9.70242 22.2364 10.5145 20.724 12.2242 18.7952C11.9464 18.0828 11.0381 15.1458 12.502 11.3538C14.7353 10.6415 19.875 14.3128 19.875 14.3128C22.0121 13.6991 24.3095 13.3813 26.5855 13.3813C28.8615 13.3813 31.1589 13.6991 33.296 14.3128C33.296 14.3128 38.4357 10.6305 40.669 11.3538C42.1329 15.1567 41.2246 18.0828 40.9468 18.7952C42.6565 20.735 43.7036 22.2474 43.7036 25.2502C43.7036 35.826 37.4099 36.6698 31.4367 37.3603C32.4198 38.226 33.2532 39.8699 33.2532 42.4454C33.2532 46.1387 33.2212 50.7087 33.2212 51.6074C33.2212 52.3197 33.7127 53.1855 35.0698 52.9334C45.7552 49.2949 53 38.8946 53 26.7407C53 11.5401 40.9788 0 26.1581 0ZM10.3863 37.7986C10.2474 37.9082 10.2794 38.1603 10.4611 38.3685C10.6321 38.5439 10.8778 38.6206 11.0167 38.4781C11.1556 38.3685 11.1236 38.1165 10.9419 37.9082C10.771 37.7329 10.5252 37.6562 10.3863 37.7986ZM9.23226 36.9109C9.15746 37.0534 9.26431 37.2287 9.47802 37.3383C9.64899 37.4479 9.8627 37.4151 9.9375 37.2616C10.0123 37.1192 9.90544 36.9438 9.69173 36.8342C9.47802 36.7685 9.30706 36.8013 9.23226 36.9109ZM12.6944 40.8124C12.5234 40.9549 12.5875 41.2837 12.8333 41.4919C13.079 41.744 13.3889 41.7769 13.5278 41.6015C13.6667 41.459 13.6026 41.1303 13.3889 40.922C13.1538 40.67 12.8333 40.6371 12.6944 40.8124ZM11.4762 39.2014C11.3052 39.311 11.3052 39.596 11.4762 39.848C11.6472 40.1001 11.9357 40.2097 12.0746 40.1001C12.2456 39.9576 12.2456 39.6727 12.0746 39.4206C11.925 39.1685 11.6472 39.059 11.4762 39.2014Z"
                    fill="black"/>
        </g>
        <defs>
            <clipPath id="clip0_201_1397">
                <rect width="53" height="53" fill="white"/>
            </clipPath>
        </defs>
    </g>
    <g id="logout">
        <g id="SVGRepo_bgCarrier" stroke-width="0"/>
        <g id="SVGRepo_tracerCarrier" stroke-linecap="round" stroke-linejoin="round"/>
        <g id="SVGRepo_iconCarrier">
            <path style="fill:#fff;"
                  d="M321.628,446.372c-63.339,0-122.346-31.372-157.846-83.917c-7.196-10.651-4.394-25.117,6.256-32.313 c10.654-7.194,25.117-4.394,32.313,6.256c26.832,39.717,71.421,63.429,119.277,63.429c79.306,0,143.827-64.521,143.827-143.827 c0-79.307-64.521-143.827-143.827-143.827c-47.998,0-92.66,23.819-119.471,63.716c-7.173,10.67-21.63,13.504-32.298,6.335 c-10.667-7.17-13.503-21.63-6.335-32.298c35.475-52.784,94.579-84.298,158.104-84.298C426.598,65.628,512,151.028,512,256 C512,360.971,426.598,446.372,321.628,446.372z"/>
            <path style="fill:#EFB701;"
                  d="M349.088,232.727H79.458l30.09-30.089c9.089-9.089,9.089-23.824,0-32.912 c-9.087-9.087-23.824-9.087-32.912,0L6.817,239.543c-0.034,0.034-0.062,0.071-0.096,0.105c-0.498,0.504-0.977,1.029-1.429,1.578 c-0.14,0.169-0.258,0.351-0.391,0.523c-0.334,0.428-0.667,0.858-0.97,1.309c-0.099,0.152-0.185,0.313-0.284,0.467 c-0.31,0.489-0.616,0.979-0.892,1.491c-0.061,0.112-0.106,0.231-0.166,0.344c-0.289,0.562-0.568,1.13-0.81,1.716 c-0.033,0.079-0.057,0.163-0.092,0.244c-0.248,0.621-0.483,1.251-0.678,1.898c-0.026,0.087-0.042,0.175-0.067,0.262 c-0.186,0.638-0.355,1.28-0.487,1.939c-0.039,0.199-0.057,0.402-0.092,0.602c-0.096,0.548-0.192,1.095-0.248,1.655 C0.04,254.445,0,255.221,0,256c0,0.779,0.04,1.555,0.116,2.324c0.057,0.568,0.155,1.122,0.251,1.676 c0.034,0.192,0.048,0.389,0.088,0.58c0.133,0.669,0.306,1.322,0.493,1.969c0.023,0.076,0.036,0.157,0.061,0.233 c0.2,0.656,0.436,1.297,0.69,1.93c0.028,0.068,0.048,0.141,0.076,0.209c0.25,0.6,0.534,1.181,0.83,1.753 c0.051,0.101,0.095,0.206,0.147,0.307c0.285,0.529,0.602,1.038,0.923,1.542c0.088,0.137,0.163,0.281,0.251,0.414 c0.321,0.479,0.673,0.936,1.029,1.389c0.113,0.146,0.214,0.299,0.332,0.442c0.483,0.588,0.995,1.153,1.53,1.691l69.815,69.814 c4.544,4.544,10.501,6.817,16.457,6.817s11.913-2.273,16.455-6.817c9.089-9.089,9.089-23.824,0-32.912l-30.089-30.089h269.63 c12.853,0,23.273-10.42,23.273-23.273S361.941,232.727,349.088,232.727z"/>
        </g>
    </g>
    <g id="like">
        <path d="M20.9752 12.1852L20.2361 12.0574L20.9752 12.1852ZM20.2696 16.265L19.5306 16.1371L20.2696 16.265ZM6.93777 20.4771L6.19056 20.5417L6.93777 20.4771ZM6.12561 11.0844L6.87282 11.0198L6.12561 11.0844ZM13.995 5.22142L14.7351 5.34269V5.34269L13.995 5.22142ZM13.3323 9.26598L14.0724 9.38725V9.38725L13.3323 9.26598ZM6.69814 9.67749L6.20855 9.10933H6.20855L6.69814 9.67749ZM8.13688 8.43769L8.62647 9.00585H8.62647L8.13688 8.43769ZM10.5181 4.78374L9.79208 4.59542L10.5181 4.78374ZM10.9938 2.94989L11.7197 3.13821V3.13821L10.9938 2.94989ZM12.6676 2.06435L12.4382 2.77841L12.4382 2.77841L12.6676 2.06435ZM12.8126 2.11093L13.042 1.39687L13.042 1.39687L12.8126 2.11093ZM9.86195 6.46262L10.5235 6.81599V6.81599L9.86195 6.46262ZM13.9047 3.24752L13.1787 3.43584V3.43584L13.9047 3.24752ZM11.6742 2.13239L11.3486 1.45675V1.45675L11.6742 2.13239ZM3.9716 21.4707L3.22439 21.5353L3.9716 21.4707ZM3 10.2342L3.74721 10.1696C3.71261 9.76945 3.36893 9.46758 2.96767 9.4849C2.5664 9.50221 2.25 9.83256 2.25 10.2342H3ZM20.2361 12.0574L19.5306 16.1371L21.0087 16.3928L21.7142 12.313L20.2361 12.0574ZM13.245 21.25H8.59635V22.75H13.245V21.25ZM7.68498 20.4125L6.87282 11.0198L5.3784 11.149L6.19056 20.5417L7.68498 20.4125ZM19.5306 16.1371C19.0238 19.0677 16.3813 21.25 13.245 21.25V22.75C17.0712 22.75 20.3708 20.081 21.0087 16.3928L19.5306 16.1371ZM13.2548 5.10015L12.5921 9.14472L14.0724 9.38725L14.7351 5.34269L13.2548 5.10015ZM7.18773 10.2456L8.62647 9.00585L7.64729 7.86954L6.20855 9.10933L7.18773 10.2456ZM11.244 4.97206L11.7197 3.13821L10.2678 2.76157L9.79208 4.59542L11.244 4.97206ZM12.4382 2.77841L12.5832 2.82498L13.042 1.39687L12.897 1.3503L12.4382 2.77841ZM10.5235 6.81599C10.8354 6.23198 11.0777 5.61339 11.244 4.97206L9.79208 4.59542C9.65573 5.12107 9.45699 5.62893 9.20042 6.10924L10.5235 6.81599ZM12.5832 2.82498C12.8896 2.92342 13.1072 3.16009 13.1787 3.43584L14.6307 3.05921C14.4252 2.26719 13.819 1.64648 13.042 1.39687L12.5832 2.82498ZM11.7197 3.13821C11.7548 3.0032 11.8523 2.87913 11.9998 2.80804L11.3486 1.45675C10.8166 1.71309 10.417 2.18627 10.2678 2.76157L11.7197 3.13821ZM11.9998 2.80804C12.1345 2.74311 12.2931 2.73181 12.4382 2.77841L12.897 1.3503C12.3873 1.18655 11.8312 1.2242 11.3486 1.45675L11.9998 2.80804ZM14.1537 10.9842H19.3348V9.4842H14.1537V10.9842ZM4.71881 21.4061L3.74721 10.1696L2.25279 10.2988L3.22439 21.5353L4.71881 21.4061ZM3.75 21.5127V10.2342H2.25V21.5127H3.75ZM3.22439 21.5353C3.2112 21.3828 3.33146 21.25 3.48671 21.25V22.75C4.21268 22.75 4.78122 22.1279 4.71881 21.4061L3.22439 21.5353ZM14.7351 5.34269C14.8596 4.58256 14.8241 3.80477 14.6307 3.0592L13.1787 3.43584C13.3197 3.97923 13.3456 4.54613 13.2548 5.10016L14.7351 5.34269ZM8.59635 21.25C8.12244 21.25 7.72601 20.887 7.68498 20.4125L6.19056 20.5417C6.29852 21.7902 7.3427 22.75 8.59635 22.75V21.25ZM8.62647 9.00585C9.30632 8.42 10.0392 7.72267 10.5235 6.81599L9.20042 6.10924C8.85404 6.75767 8.3025 7.30493 7.64729 7.86954L8.62647 9.00585ZM21.7142 12.313C21.9695 10.8365 20.8341 9.4842 19.3348 9.4842V10.9842C19.9014 10.9842 20.3332 11.4959 20.2361 12.0574L21.7142 12.313ZM3.48671 21.25C3.63292 21.25 3.75 21.3684 3.75 21.5127H2.25C2.25 22.1953 2.80289 22.75 3.48671 22.75V21.25ZM12.5921 9.14471C12.4344 10.1076 13.1766 10.9842 14.1537 10.9842V9.4842C14.1038 9.4842 14.0639 9.43901 14.0724 9.38725L12.5921 9.14471ZM6.87282 11.0198C6.8474 10.7258 6.96475 10.4378 7.18773 10.2456L6.20855 9.10933C5.62022 9.61631 5.31149 10.3753 5.3784 11.149L6.87282 11.0198Z"
              fill="#1C274C"/>

    </g>
    <g id="photo-add">
        <path d="M23 4C23 2.34315 21.6569 1 20 1H16C15.4477 1 15 1.44772 15 2C15 2.55228 15.4477 3 16 3H20C20.5523 3 21 3.44772 21 4V8C21 8.55228 21.4477 9 22 9C22.5523 9 23 8.55228 23 8V4Z"
              fill="#EFB701"/>
        <path d="M23 16C23 15.4477 22.5523 15 22 15C21.4477 15 21 15.4477 21 16V20C21 20.5523 20.5523 21 20 21H16C15.4477 21 15 21.4477 15 22C15 22.5523 15.4477 23 16 23H20C21.6569 23 23 21.6569 23 20V16Z"
              fill="#EFB701"/>
        <path d="M8 21H4C3.44772 21 3 20.5523 3 20V16C3 15.4477 2.55228 15 2 15C1.44772 15 1 15.4477 1 16V20C1 21.6569 2.34315 23 4 23H8C8.55228 23 9 22.5523 9 22C9 21.4477 8.55228 21 8 21Z"
              fill="#EFB701"/>
        <path d="M1 8C1 8.55228 1.44772 9 2 9C2.55228 9 3 8.55228 3 8V4C3 3.44772 3.44772 3 4 3H8C8.55228 3 9 2.55228 9 2C9 1.44772 8.55228 1 8 1H4C2.34315 1 1 2.34315 1 4V8Z"
              fill="#EFB701"/>
        <path d="M11 9C11 8.44771 11.4477 8 12 8C12.5523 8 13 8.44771 13 9V11H15C15.5523 11 16 11.4477 16 12C16 12.5523 15.5523 13 15 13H13V15C13 15.5523 12.5523 16 12 16C11.4477 16 11 15.5523 11 15V13H9C8.44771 13 8 12.5523 8 12C8 11.4477 8.44771 11 9 11H11V9Z"
              fill="#EFB701"/>

    </g>
    <g id="settings">
        <circle cx="12" cy="12" r="3" stroke="#1C274C" stroke-width="1.5"/>
        <path d="M13.7654 2.15224C13.3978 2 12.9319 2 12 2C11.0681 2 10.6022 2 10.2346 2.15224C9.74457 2.35523 9.35522 2.74458 9.15223 3.23463C9.05957 3.45834 9.0233 3.7185 9.00911 4.09799C8.98826 4.65568 8.70226 5.17189 8.21894 5.45093C7.73564 5.72996 7.14559 5.71954 6.65219 5.45876C6.31645 5.2813 6.07301 5.18262 5.83294 5.15102C5.30704 5.08178 4.77518 5.22429 4.35436 5.5472C4.03874 5.78938 3.80577 6.1929 3.33983 6.99993C2.87389 7.80697 2.64092 8.21048 2.58899 8.60491C2.51976 9.1308 2.66227 9.66266 2.98518 10.0835C3.13256 10.2756 3.3397 10.437 3.66119 10.639C4.1338 10.936 4.43789 11.4419 4.43786 12C4.43783 12.5581 4.13375 13.0639 3.66118 13.3608C3.33965 13.5629 3.13248 13.7244 2.98508 13.9165C2.66217 14.3373 2.51966 14.8691 2.5889 15.395C2.64082 15.7894 2.87379 16.193 3.33973 17C3.80568 17.807 4.03865 18.2106 4.35426 18.4527C4.77508 18.7756 5.30694 18.9181 5.83284 18.8489C6.07289 18.8173 6.31632 18.7186 6.65204 18.5412C7.14547 18.2804 7.73556 18.27 8.2189 18.549C8.70224 18.8281 8.98826 19.3443 9.00911 19.9021C9.02331 20.2815 9.05957 20.5417 9.15223 20.7654C9.35522 21.2554 9.74457 21.6448 10.2346 21.8478C10.6022 22 11.0681 22 12 22C12.9319 22 13.3978 22 13.7654 21.8478C14.2554 21.6448 14.6448 21.2554 14.8477 20.7654C14.9404 20.5417 14.9767 20.2815 14.9909 19.902C15.0117 19.3443 15.2977 18.8281 15.781 18.549C16.2643 18.2699 16.8544 18.2804 17.3479 18.5412C17.6836 18.7186 17.927 18.8172 18.167 18.8488C18.6929 18.9181 19.2248 18.7756 19.6456 18.4527C19.9612 18.2105 20.1942 17.807 20.6601 16.9999C21.1261 16.1929 21.3591 15.7894 21.411 15.395C21.4802 14.8691 21.3377 14.3372 21.0148 13.9164C20.8674 13.7243 20.6602 13.5628 20.3387 13.3608C19.8662 13.0639 19.5621 12.558 19.5621 11.9999C19.5621 11.4418 19.8662 10.9361 20.3387 10.6392C20.6603 10.4371 20.8675 10.2757 21.0149 10.0835C21.3378 9.66273 21.4803 9.13087 21.4111 8.60497C21.3592 8.21055 21.1262 7.80703 20.6602 7C20.1943 6.19297 19.9613 5.78945 19.6457 5.54727C19.2249 5.22436 18.693 5.08185 18.1671 5.15109C17.9271 5.18269 17.6837 5.28136 17.3479 5.4588C16.8545 5.71959 16.2644 5.73002 15.7811 5.45096C15.2977 5.17191 15.0117 4.65566 14.9909 4.09794C14.9767 3.71848 14.9404 3.45833 14.8477 3.23463C14.6448 2.74458 14.2554 2.35523 13.7654 2.15224Z"
              stroke="#1C274C" stroke-width="1.5"/>

    </g>
</svg>