<svg xmlns="http://www.w3.org/2000/svg">
    <g id="facebook">
        <path d="M40 20.1213C40 9.008 31.0467 0 20 0C8.95333 0 0 9.008 0 20.1213C0 30.1667 7.312 38.4907 16.8747 40V25.9387H11.7973V20.12H16.8747V15.688C16.8747 10.6453 19.86 7.85867 24.4293 7.85867C26.616 7.85867 28.9067 8.252 28.9067 8.252V13.204H26.3827C23.8987 13.204 23.1253 14.756 23.1253 16.348V20.1213H28.672L27.7853 25.9373H23.1253V40C32.688 38.4907 40 30.1667 40 20.1213Z"
              fill="black"/>
    </g>
    <g id="vk">
        <g clip-path="url(#clip0_201_1404)">
            <path
                    d="M0.589844 25.3272C0.589844 13.3878 0.589844 7.41816 4.29892 3.70908C8.00801 0 13.9776 0 25.917 0H28.0276C39.967 0 45.9366 0 49.6458 3.70908C53.3548 7.41816 53.3548 13.3878 53.3548 25.3272V27.4378C53.3548 39.3772 53.3548 45.3468 49.6458 49.0559C45.9366 52.765 39.967 52.765 28.0276 52.765H25.917C13.9776 52.765 8.00801 52.765 4.29892 49.0559C0.589844 45.3468 0.589844 39.3772 0.589844 27.4378V25.3272Z"
                    fill="black"/>
            <path
                    d="M28.5746 37.9908C16.3157 37.9908 9.32359 29.672 9.03224 15.8295H15.1729C15.3746 25.9895 19.9015 30.2931 23.4873 31.1805V15.8295H29.2696V24.592C32.8105 24.2148 36.5303 20.2218 37.7854 15.8295H43.5675C42.6039 21.2423 38.5699 25.2353 35.7012 26.8769C38.5699 28.2079 43.1644 31.6907 44.9124 37.9908H38.5474C37.1804 33.7759 33.7742 30.5149 29.2696 30.0713V37.9908H28.5746Z"
                    fill="white"/>
        </g>
    </g>
    <g id="twitter">
        <path fill-rule="evenodd" clip-rule="evenodd"
              d="M0.0390684 53.75H4.571L22.308 33.1886L36.4117 53.75H52L30.9812 23.2584L50.281 0.75H45.6709L28.9106 20.221L15.4711 0.75H0L20.3156 30.268L0.0390684 53.75ZM6.25094 4.21583H13.2442L45.71 50.4789H38.6386L6.25094 4.21583Z"
              fill="black"/>
    </g>
    <g id="instagram">
        <g clip-path="url(#clip0_201_1405)">
            <path fill-rule="evenodd" clip-rule="evenodd"
                  d="M15.8605 0.158295C18.6738 0.0287808 19.5708 0 26.7373 0C33.9037 0 34.8007 0.0311793 37.6117 0.158295C40.4226 0.285411 42.3413 0.733913 44.0202 1.38388C45.7782 2.04824 47.3732 3.08675 48.6923 4.42986C50.0354 5.74659 51.0715 7.33913 51.7335 9.09956C52.3859 10.7784 52.832 12.6972 52.9615 15.5033C53.091 18.3214 53.1198 19.2184 53.1198 26.3825C53.1198 33.5489 53.0886 34.4459 52.9615 37.2593C52.8344 40.0654 52.3859 41.9841 51.7335 43.663C51.0715 45.4237 50.0337 47.0189 48.6923 48.3375C47.3732 49.6806 45.7782 50.7167 44.0202 51.3787C42.3413 52.0311 40.4226 52.4772 37.6165 52.6067C34.8007 52.7362 33.9037 52.765 26.7373 52.765C19.5708 52.765 18.6738 52.7338 15.8605 52.6067C13.0544 52.4796 11.1356 52.0311 9.45676 51.3787C7.69613 50.7166 6.10095 49.6788 4.78226 48.3375C3.44006 47.02 2.40139 45.4256 1.73868 43.6654C1.08871 41.9865 0.642606 40.0678 0.513092 37.2617C0.383578 34.4435 0.354797 33.5465 0.354797 26.3825C0.354797 19.216 0.385977 18.319 0.513092 15.5081C0.640208 12.6972 1.08871 10.7784 1.73868 9.09956C2.40237 7.33932 3.44183 5.74494 4.78466 4.42746C6.10148 3.08555 7.69506 2.04691 9.45436 1.38388C11.1332 0.733913 13.052 0.287809 15.8581 0.158295H15.8605ZM37.3982 4.90714C34.6161 4.78003 33.7814 4.75364 26.7373 4.75364C19.6932 4.75364 18.8585 4.78003 16.0764 4.90714C13.5029 5.02466 12.107 5.45398 11.1764 5.81614C9.94603 6.29582 9.06582 6.86424 8.14243 7.78763C7.26712 8.63919 6.59349 9.67585 6.17094 10.8216C5.80878 11.7522 5.37946 13.1481 5.26194 15.7216C5.13482 18.5037 5.10844 19.3384 5.10844 26.3825C5.10844 33.4266 5.13482 34.2613 5.26194 37.0434C5.37946 39.6169 5.80878 41.0128 6.17094 41.9434C6.59306 43.0874 7.26701 44.1259 8.14243 44.9773C8.99386 45.8528 10.0324 46.5267 11.1764 46.9488C12.107 47.311 13.5029 47.7403 16.0764 47.8578C18.8585 47.985 19.6908 48.0113 26.7373 48.0113C33.7838 48.0113 34.6161 47.985 37.3982 47.8578C39.9717 47.7403 41.3676 47.311 42.2982 46.9488C43.5285 46.4692 44.4088 45.9007 45.3321 44.9773C46.2076 44.1259 46.8815 43.0874 47.3036 41.9434C47.6658 41.0128 48.0951 39.6169 48.2126 37.0434C48.3397 34.2613 48.3661 33.4266 48.3661 26.3825C48.3661 19.3384 48.3397 18.5037 48.2126 15.7216C48.0951 13.1481 47.6658 11.7522 47.3036 10.8216C46.824 9.59123 46.2555 8.71102 45.3321 7.78763C44.4805 6.91238 43.4439 6.23876 42.2982 5.81614C41.3676 5.45398 39.9717 5.02466 37.3982 4.90714ZM23.3675 34.5155C25.2495 35.2989 27.345 35.4046 29.2962 34.8146C31.2474 34.2246 32.9333 32.9755 34.0659 31.2806C35.1985 29.5857 35.7075 27.5502 35.506 25.5217C35.3045 23.4932 34.405 21.5976 32.9612 20.1586C32.0407 19.2388 30.9278 18.5344 29.7025 18.0963C28.4772 17.6582 27.17 17.4973 25.875 17.625C24.5801 17.7527 23.3295 18.166 22.2134 18.835C21.0973 19.5041 20.1434 20.4122 19.4205 21.4942C18.6975 22.5761 18.2234 23.8049 18.0323 25.0921C17.8412 26.3792 17.9379 27.6927 18.3154 28.938C18.6929 30.1833 19.3417 31.3295 20.2153 32.2939C21.0889 33.2583 22.1655 34.0171 23.3675 34.5155ZM17.1484 16.7937C18.4077 15.5344 19.9026 14.5356 21.5478 13.8541C23.1931 13.1726 24.9565 12.8218 26.7373 12.8218C28.5181 12.8218 30.2815 13.1726 31.9267 13.8541C33.572 14.5356 35.0669 15.5344 36.3261 16.7937C37.5853 18.0529 38.5842 19.5478 39.2657 21.193C39.9472 22.8383 40.2979 24.6017 40.2979 26.3825C40.2979 28.1633 39.9472 29.9267 39.2657 31.5719C38.5842 33.2172 37.5853 34.7121 36.3261 35.9713C33.783 38.5144 30.3338 39.9431 26.7373 39.9431C23.1408 39.9431 19.6916 38.5144 17.1484 35.9713C14.6053 33.4282 13.1766 29.979 13.1766 26.3825C13.1766 22.786 14.6053 19.3368 17.1484 16.7937ZM43.3055 14.8413C43.6175 14.547 43.8673 14.193 44.0401 13.8004C44.2129 13.4077 44.3052 12.9844 44.3114 12.5555C44.3177 12.1266 44.2378 11.7007 44.0765 11.3032C43.9153 10.9057 43.6759 10.5446 43.3726 10.2413C43.0692 9.93797 42.7081 9.69858 42.3106 9.53731C41.9131 9.37604 41.4873 9.29617 41.0583 9.30242C40.6294 9.30868 40.2061 9.40093 39.8135 9.57372C39.4208 9.7465 39.0669 9.99631 38.7725 10.3084C38.2 10.9152 37.8866 11.7213 37.8988 12.5555C37.9109 13.3897 38.2477 14.1863 38.8376 14.7762C39.4276 15.3661 40.2242 15.7029 41.0583 15.7151C41.8925 15.7272 42.6986 15.4138 43.3055 14.8413Z"
                  fill="black"/>
        </g>
        <defs>
            <clipPath id="clip0_201_1405">
                <rect width="52.765" height="52.765" fill="white" transform="translate(0.354797)"/>
            </clipPath>
        </defs>
    </g>
    <g id="youtube">
        <g id="7935ec95c421cee6d86eb22ecd1368a9">

            <path style="display: inline;" d="M34.354,0.5h45.959l29.604,91.096h2.863L141.013,0.5h46.353l-53.107,133.338v94.589H88.641V138.08
		L34.354,0.5z M192.193,98.657c0-13.374,5.495-24.003,16.493-31.938c10.984-7.934,25.749-11.901,44.3-11.901
		c16.893,0,30.728,4.192,41.506,12.55c10.805,8.358,16.193,19.112,16.193,32.287v89.2c0,14.771-5.301,26.373-15.868,34.782
		c-10.579,8.408-25.151,12.625-43.684,12.625c-17.859,0-32.143-4.342-42.866-13.024c-10.709-8.683-16.074-20.36-16.074-35.057
		V98.657z M234.205,191.424c0,4.766,1.44,8.409,4.354,11.029c2.907,2.595,7.055,3.867,12.451,3.867c5.532,0,9.93-1.297,13.18-3.942
		c3.256-2.669,4.891-6.313,4.891-10.954V97.359c0-3.768-1.672-6.812-4.99-9.132c-3.318-2.321-7.679-3.494-13.081-3.494
		c-4.972,0-9.027,1.173-12.133,3.494c-3.119,2.32-4.672,5.364-4.672,9.132V191.424z M459.992,57.588v172.711h-40.883v-19.063
		c-7.547,7.037-15.381,12.375-23.541,16.069c-8.146,3.643-16.068,5.489-23.729,5.489c-9.455,0-16.592-2.57-21.383-7.71
		c-4.791-5.141-7.186-12.85-7.186-23.13V57.588h40.895v132.39c0,4.117,0.861,7.061,2.57,8.907c1.723,1.822,4.492,2.745,8.322,2.745
		c3.018,0,6.824-1.223,11.4-3.643c4.604-2.42,8.82-5.514,12.65-9.282V57.588H459.992z M421.68,363.262
		c-2.008-2.221-5.203-3.368-9.594-3.368c-4.59,0-7.883,1.147-9.879,3.368c-1.996,2.245-2.994,5.963-2.994,11.153v10.754h25.473
		v-10.754C424.686,369.225,423.688,365.507,421.68,363.262z M300.855,444.228c2.195,0.898,4.516,1.322,6.961,1.322
		c3.543,0,6.113-0.849,7.785-2.595c1.67-1.722,2.494-4.591,2.494-8.533v-62.178c0-4.191-1.023-7.36-3.068-9.531
		c-2.059-2.171-5.064-3.244-8.957-3.244c-2.059,0-4.092,0.399-6.102,1.198c-2.008,0.823-3.991,2.096-5.95,3.792v75.402
		C296.364,441.907,298.646,443.354,300.855,444.228z M490.496,312.587c0-29.941-30.754-54.219-68.654-54.219
		c-54.068-1.822-109.396-2.62-165.842-2.521c-56.427-0.1-111.756,0.698-165.843,2.521c-37.881,0-68.633,24.277-68.633,54.219
		c-2.277,23.678-3.263,47.381-3.175,71.085c-0.087,23.703,0.898,47.406,3.175,71.11c0,29.916,30.752,54.192,68.633,54.192
		c54.087,1.797,109.416,2.596,165.843,2.521c56.446,0.075,111.774-0.724,165.842-2.521c37.9,0,68.654-24.276,68.654-54.192
		c2.27-23.704,3.254-47.407,3.154-71.11C493.75,359.968,492.766,336.265,490.496,312.587z M121.251,463.465v1.797H88.778v-1.797
		V321.644H55.182v-1.771v-22.605v-1.771h99.672v1.771v22.605v1.771h-33.603V463.465z M236.768,341.33v122.135v1.797h-28.831v-1.797
		v-11.901c-5.327,5.064-10.848,8.882-16.592,11.527c-5.757,2.619-11.334,3.942-16.748,3.942c-6.662,0-11.684-1.847-15.065-5.515
		c-3.387-3.692-5.078-9.231-5.078-16.617v-1.797V341.33v-1.772h28.844v1.772v93.216c0,2.92,0.599,5.065,1.802,6.363
		c1.217,1.322,3.175,1.971,5.876,1.971c2.127,0,4.803-0.873,8.047-2.595c3.231-1.747,6.2-3.967,8.914-6.662V341.33v-1.772h28.831
		V341.33z M347.775,370.847v66.943v1.797c0,8.808-2.258,15.544-6.773,20.235c-4.518,4.641-11.055,6.986-19.588,6.986
		c-5.639,0-10.652-0.898-15.07-2.695c-4.428-1.821-8.532-4.616-12.325-8.384v7.735v1.797h-29.105v-1.797V297.267v-1.771h29.105
		v1.771v52.297c3.893-3.793,8.009-6.662,12.376-8.608c4.379-1.971,8.809-2.969,13.273-2.969c9.107,0,16.094,2.645,20.896,7.935
		c4.803,5.289,7.211,12.999,7.211,23.13V370.847z M454.365,374.64v29.767v1.797h-55.152v21.581c0,6.513,0.947,11.029,2.844,13.549
		c1.908,2.521,5.152,3.793,9.742,3.793c4.779,0,8.135-1.073,10.043-3.219c1.896-2.121,2.844-6.837,2.844-14.123v-6.811v-1.796h29.68
		v1.796v7.51v1.796c0,12.7-3.605,22.257-10.84,28.694c-7.225,6.438-18.016,9.631-32.375,9.631c-12.912,0-23.066-3.418-30.49-10.229
		c-7.41-6.812-11.127-16.193-11.127-28.096v-1.796V374.64v-1.771c0-10.754,4.078-19.512,12.213-26.299
		c8.146-6.762,18.689-10.155,31.588-10.155c13.199,0,23.328,3.144,30.416,9.406c7.061,6.264,10.615,15.296,10.615,27.048V374.64z">

            </path>

        </g>
    </g>
    <g id="github">
        <g clip-path="url(#clip0_201_1397)">
            <path
                    d="M17.7272 42.6755C17.7272 42.8947 17.4815 43.0701 17.1716 43.0701C16.819 43.1029 16.5732 42.9276 16.5732 42.6755C16.5732 42.4563 16.819 42.281 17.1288 42.281C17.4494 42.2481 17.7272 42.4235 17.7272 42.6755ZM14.404 42.1824C14.3292 42.4015 14.5429 42.6536 14.8635 42.7194C15.1413 42.8289 15.4619 42.7194 15.526 42.5002C15.5901 42.281 15.3871 42.0289 15.0665 41.9303C14.7887 41.8536 14.4788 41.9632 14.404 42.1824ZM19.127 41.996C18.8171 42.0728 18.6034 42.281 18.6355 42.5331C18.6675 42.7522 18.9454 42.8947 19.2659 42.818C19.5758 42.7413 19.7895 42.5331 19.7575 42.3139C19.7254 42.1056 19.4369 41.9632 19.127 41.996ZM26.1581 0C11.3373 0 0 11.5401 0 26.7407C0 38.8946 7.45847 49.2949 18.1119 52.9553C19.4796 53.2074 19.9605 52.3416 19.9605 51.6293C19.9605 50.9498 19.9284 47.2017 19.9284 44.9003C19.9284 44.9003 12.4486 46.5442 10.8778 41.6344C10.8778 41.6344 9.65968 38.4452 7.90726 37.6233C7.90726 37.6233 5.46028 35.9027 8.07823 35.9356C8.07823 35.9356 10.7389 36.1547 12.2028 38.7631C14.5429 42.9933 18.4645 41.7769 19.9925 41.0535C20.2383 39.3001 20.9329 38.0836 21.7022 37.3603C15.729 36.6808 9.70242 35.7931 9.70242 25.2502C9.70242 22.2364 10.5145 20.724 12.2242 18.7952C11.9464 18.0828 11.0381 15.1458 12.502 11.3538C14.7353 10.6415 19.875 14.3128 19.875 14.3128C22.0121 13.6991 24.3095 13.3813 26.5855 13.3813C28.8615 13.3813 31.1589 13.6991 33.296 14.3128C33.296 14.3128 38.4357 10.6305 40.669 11.3538C42.1329 15.1567 41.2246 18.0828 40.9468 18.7952C42.6565 20.735 43.7036 22.2474 43.7036 25.2502C43.7036 35.826 37.4099 36.6698 31.4367 37.3603C32.4198 38.226 33.2532 39.8699 33.2532 42.4454C33.2532 46.1387 33.2212 50.7087 33.2212 51.6074C33.2212 52.3197 33.7127 53.1855 35.0698 52.9334C45.7552 49.2949 53 38.8946 53 26.7407C53 11.5401 40.9788 0 26.1581 0ZM10.3863 37.7986C10.2474 37.9082 10.2794 38.1603 10.4611 38.3685C10.6321 38.5439 10.8778 38.6206 11.0167 38.4781C11.1556 38.3685 11.1236 38.1165 10.9419 37.9082C10.771 37.7329 10.5252 37.6562 10.3863 37.7986ZM9.23226 36.9109C9.15746 37.0534 9.26431 37.2287 9.47802 37.3383C9.64899 37.4479 9.8627 37.4151 9.9375 37.2616C10.0123 37.1192 9.90544 36.9438 9.69173 36.8342C9.47802 36.7685 9.30706 36.8013 9.23226 36.9109ZM12.6944 40.8124C12.5234 40.9549 12.5875 41.2837 12.8333 41.4919C13.079 41.744 13.3889 41.7769 13.5278 41.6015C13.6667 41.459 13.6026 41.1303 13.3889 40.922C13.1538 40.67 12.8333 40.6371 12.6944 40.8124ZM11.4762 39.2014C11.3052 39.311 11.3052 39.596 11.4762 39.848C11.6472 40.1001 11.9357 40.2097 12.0746 40.1001C12.2456 39.9576 12.2456 39.6727 12.0746 39.4206C11.925 39.1685 11.6472 39.059 11.4762 39.2014Z"
                    fill="black"/>
        </g>
        <defs>
            <clipPath id="clip0_201_1397">
                <rect width="53" height="53" fill="white"/>
            </clipPath>
        </defs>
    </g>
    <g id="logout">
        <g id="SVGRepo_bgCarrier" stroke-width="0"/>
        <g id="SVGRepo_tracerCarrier" stroke-linecap="round" stroke-linejoin="round"/>
        <g id="SVGRepo_iconCarrier">
            <path style="fill:#fff;"
                  d="M321.628,446.372c-63.339,0-122.346-31.372-157.846-83.917c-7.196-10.651-4.394-25.117,6.256-32.313 c10.654-7.194,25.117-4.394,32.313,6.256c26.832,39.717,71.421,63.429,119.277,63.429c79.306,0,143.827-64.521,143.827-143.827 c0-79.307-64.521-143.827-143.827-143.827c-47.998,0-92.66,23.819-119.471,63.716c-7.173,10.67-21.63,13.504-32.298,6.335 c-10.667-7.17-13.503-21.63-6.335-32.298c35.475-52.784,94.579-84.298,158.104-84.298C426.598,65.628,512,151.028,512,256 C512,360.971,426.598,446.372,321.628,446.372z"/>
            <path style="fill:#EFB701;"
                  d="M349.088,232.727H79.458l30.09-30.089c9.089-9.089,9.089-23.824,0-32.912 c-9.087-9.087-23.824-9.087-32.912,0L6.817,239.543c-0.034,0.034-0.062,0.071-0.096,0.105c-0.498,0.504-0.977,1.029-1.429,1.578 c-0.14,0.169-0.258,0.351-0.391,0.523c-0.334,0.428-0.667,0.858-0.97,1.309c-0.099,0.152-0.185,0.313-0.284,0.467 c-0.31,0.489-0.616,0.979-0.892,1.491c-0.061,0.112-0.106,0.231-0.166,0.344c-0.289,0.562-0.568,1.13-0.81,1.716 c-0.033,0.079-0.057,0.163-0.092,0.244c-0.248,0.621-0.483,1.251-0.678,1.898c-0.026,0.087-0.042,0.175-0.067,0.262 c-0.186,0.638-0.355,1.28-0.487,1.939c-0.039,0.199-0.057,0.402-0.092,0.602c-0.096,0.548-0.192,1.095-0.248,1.655 C0.04,254.445,0,255.221,0,256c0,0.779,0.04,1.555,0.116,2.324c0.057,0.568,0.155,1.122,0.251,1.676 c0.034,0.192,0.048,0.389,0.088,0.58c0.133,0.669,0.306,1.322,0.493,1.969c0.023,0.076,0.036,0.157,0.061,0.233 c0.2,0.656,0.436,1.297,0.69,1.93c0.028,0.068,0.048,0.141,0.076,0.209c0.25,0.6,0.534,1.181,0.83,1.753 c0.051,0.101,0.095,0.206,0.147,0.307c0.285,0.529,0.602,1.038,0.923,1.542c0.088,0.137,0.163,0.281,0.251,0.414 c0.321,0.479,0.673,0.936,1.029,1.389c0.113,0.146,0.214,0.299,0.332,0.442c0.483,0.588,0.995,1.153,1.53,1.691l69.815,69.814 c4.544,4.544,10.501,6.817,16.457,6.817s11.913-2.273,16.455-6.817c9.089-9.089,9.089-23.824,0-32.912l-30.089-30.089h269.63 c12.853,0,23.273-10.42,23.273-23.273S361.941,232.727,349.088,232.727z"/>
        </g>
    </g>
    <g id="like">
        <g id="icomoon-ignore">
        </g>
        <path d="M21.886 5.115c3.521 0 6.376 2.855 6.376 6.376 0 1.809-0.754 3.439-1.964 4.6l-10.297 10.349-10.484-10.536c-1.1-1.146-1.778-2.699-1.778-4.413 0-3.522 2.855-6.376 6.376-6.376 2.652 0 4.925 1.62 5.886 3.924 0.961-2.304 3.234-3.924 5.886-3.924zM21.886 4.049c-2.345 0-4.499 1.089-5.886 2.884-1.386-1.795-3.54-2.884-5.886-2.884-4.104 0-7.442 3.339-7.442 7.442 0 1.928 0.737 3.758 2.075 5.152l11.253 11.309 11.053-11.108c1.46-1.402 2.275-3.308 2.275-5.352 0-4.104-3.339-7.442-7.442-7.442v0z" fill="#1B1B1B">
        </path>
    </g>
    <g id="photo-add">
        <path d="M23 4C23 2.34315 21.6569 1 20 1H16C15.4477 1 15 1.44772 15 2C15 2.55228 15.4477 3 16 3H20C20.5523 3 21 3.44772 21 4V8C21 8.55228 21.4477 9 22 9C22.5523 9 23 8.55228 23 8V4Z"
              fill="#EFB701"/>
        <path d="M23 16C23 15.4477 22.5523 15 22 15C21.4477 15 21 15.4477 21 16V20C21 20.5523 20.5523 21 20 21H16C15.4477 21 15 21.4477 15 22C15 22.5523 15.4477 23 16 23H20C21.6569 23 23 21.6569 23 20V16Z"
              fill="#EFB701"/>
        <path d="M8 21H4C3.44772 21 3 20.5523 3 20V16C3 15.4477 2.55228 15 2 15C1.44772 15 1 15.4477 1 16V20C1 21.6569 2.34315 23 4 23H8C8.55228 23 9 22.5523 9 22C9 21.4477 8.55228 21 8 21Z"
              fill="#EFB701"/>
        <path d="M1 8C1 8.55228 1.44772 9 2 9C2.55228 9 3 8.55228 3 8V4C3 3.44772 3.44772 3 4 3H8C8.55228 3 9 2.55228 9 2C9 1.44772 8.55228 1 8 1H4C2.34315 1 1 2.34315 1 4V8Z"
              fill="#EFB701"/>
        <path d="M11 9C11 8.44771 11.4477 8 12 8C12.5523 8 13 8.44771 13 9V11H15C15.5523 11 16 11.4477 16 12C16 12.5523 15.5523 13 15 13H13V15C13 15.5523 12.5523 16 12 16C11.4477 16 11 15.5523 11 15V13H9C8.44771 13 8 12.5523 8 12C8 11.4477 8.44771 11 9 11H11V9Z"
              fill="#EFB701"/>

    </g>
    <g id="settings">
        <path d="M14.1361 3.36144L14.6337 3.31169L14.1361 3.36144ZM13.9838 2.54161L13.5394 2.7708V2.77081L13.9838 2.54161ZM14.4311 4.81793L14.8286 4.51467V4.51467L14.4311 4.81793ZM15.3595 5.20248L15.2928 4.70694L15.2928 4.70694L15.3595 5.20248ZM16.5979 4.38113L16.9145 4.76811V4.76811L16.5979 4.38113ZM17.2853 3.90918L17.4375 4.38547L17.2853 3.90918ZM17.9872 3.94419L18.186 3.48541V3.48541L17.9872 3.94419ZM18.6243 4.4822L18.2707 4.83575V4.83575L18.6243 4.4822ZM19.5178 5.37567L19.8713 5.02211V5.02211L19.5178 5.37567ZM20.0558 6.01275L20.5146 5.81396L20.5146 5.81396L20.0558 6.01275ZM20.0908 6.71464L20.5671 6.8668L20.5671 6.86679L20.0908 6.71464ZM19.6188 7.4021L19.2318 7.08548V7.08548L19.6188 7.4021ZM18.7975 8.64056L18.3019 8.5739V8.5739L18.7975 8.64056ZM19.182 9.56893L18.8787 9.96645L19.182 9.56893ZM20.6385 9.86385L20.6883 9.36633L20.6385 9.86385ZM21.4584 10.0162L21.6876 9.57187L21.6876 9.57187L21.4584 10.0162ZM21.9299 10.5373L22.3949 10.3534V10.3534L21.9299 10.5373ZM21.93 13.4626L21.465 13.2788L21.465 13.2788L21.93 13.4626ZM21.4583 13.9838L21.6875 14.4282H21.6875L21.4583 13.9838ZM20.6386 14.1361L20.5889 13.6386L20.5726 13.6402L20.5564 13.6429L20.6386 14.1361ZM20.6386 14.1361L20.6884 14.6337L20.7047 14.632L20.7208 14.6293L20.6386 14.1361ZM19.1825 14.4309L18.8794 14.0333L19.1825 14.4309ZM18.7979 15.3596L18.3023 15.4264V15.4264L18.7979 15.3596ZM19.619 16.5976L19.232 16.9142L19.619 16.5976ZM20.0908 17.2848L19.6145 17.437L19.6145 17.437L20.0908 17.2848ZM20.0558 17.9869L19.597 17.7881L19.597 17.7881L20.0558 17.9869ZM19.5179 18.6238L19.8715 18.9773L19.5179 18.6238ZM18.6243 19.5174L18.2708 19.1638V19.1638L18.6243 19.5174ZM17.9873 20.0554L18.1861 20.5141L18.1861 20.5141L17.9873 20.0554ZM17.2854 20.0904L17.1332 20.5667H17.1332L17.2854 20.0904ZM16.5979 19.6184L16.9146 19.2314L16.9103 19.228L16.5979 19.6184ZM16.5979 19.6184L16.2813 20.0054L16.2856 20.0088L16.5979 19.6184ZM15.3595 18.7971L15.4262 18.3015H15.4262L15.3595 18.7971ZM14.4311 19.1816L14.8286 19.4849L14.8286 19.4849L14.4311 19.1816ZM14.1362 20.6383L13.6386 20.5886L14.1362 20.6383ZM13.9837 21.4585L13.5394 21.2292L13.5394 21.2292L13.9837 21.4585ZM13.4628 21.9299L13.2789 21.465H13.2789L13.4628 21.9299ZM10.5373 21.9299L10.7211 21.465H10.7211L10.5373 21.9299ZM10.0162 21.4584L10.4606 21.2292L10.0162 21.4584ZM9.86385 20.6385L9.36634 20.6883L9.86385 20.6385ZM9.56892 19.182L9.17139 19.4853L9.17139 19.4853L9.56892 19.182ZM8.64057 18.7975L8.57392 18.3019H8.57392L8.64057 18.7975ZM7.40208 19.6189L7.08546 19.2319L7.07754 19.2384L7.06989 19.2452L7.40208 19.6189ZM7.40206 19.6189L7.71868 20.0058L7.7266 19.9994L7.73424 19.9926L7.40206 19.6189ZM6.71458 20.0908L6.86673 20.5671H6.86673L6.71458 20.0908ZM6.01272 20.0558L5.81394 20.5146H5.81394L6.01272 20.0558ZM5.37561 19.5178L5.72916 19.1642H5.72916L5.37561 19.5178ZM4.48217 18.6243L4.12861 18.9779H4.12861L4.48217 18.6243ZM3.94414 17.9873L4.40292 17.7885L3.94414 17.9873ZM3.90913 17.2854L4.38542 17.4375L3.90913 17.2854ZM4.3811 16.5979L4.76808 16.9145L4.3811 16.5979ZM5.20247 15.3594L5.69801 15.4261L5.20247 15.3594ZM4.81792 14.4311L5.12119 14.0335H5.12119L4.81792 14.4311ZM3.36143 14.1361L3.31168 14.6337H3.31168L3.36143 14.1361ZM2.54161 13.9838L2.77081 13.5394H2.77081L2.54161 13.9838ZM2.07005 13.4627L1.60507 13.6465H1.60507L2.07005 13.4627ZM2.07008 10.5372L1.60513 10.3533L1.60513 10.3533L2.07008 10.5372ZM2.54152 10.0163L2.31229 9.57193L2.31228 9.57193L2.54152 10.0163ZM3.36155 9.86384V9.36384H3.33661L3.3118 9.36633L3.36155 9.86384ZM3.36156 9.86384V10.3638H3.3865L3.41131 10.3614L3.36156 9.86384ZM4.81842 9.56881L4.5151 9.17132L4.51509 9.17132L4.81842 9.56881ZM5.20287 8.64066L5.69841 8.57408H5.69841L5.20287 8.64066ZM4.38128 7.40182L4.76826 7.0852L4.38128 7.40182ZM3.90914 6.71405L4.38545 6.56197H4.38544L3.90914 6.71405ZM3.94413 6.01243L3.48532 5.81371L3.48532 5.81371L3.94413 6.01243ZM4.48233 5.37509L4.83589 5.72864L4.83589 5.72864L4.48233 5.37509ZM5.37565 4.48177L5.0221 4.12822H5.0221L5.37565 4.48177ZM6.01277 3.94373L5.81398 3.48494H5.81398L6.01277 3.94373ZM6.71463 3.90872L6.86677 3.43243L6.71463 3.90872ZM7.4022 4.38076L7.71882 3.99378V3.99378L7.4022 4.38076ZM8.64044 5.20207L8.70718 4.70654L8.64044 5.20207ZM9.56907 4.81742L9.17149 4.51422L9.56907 4.81742ZM9.86387 3.36131L10.3614 3.41106V3.41106L9.86387 3.36131ZM10.0162 2.5417L9.57179 2.31255L9.57179 2.31256L10.0162 2.5417ZM10.5374 2.07001L10.7212 2.535L10.7212 2.535L10.5374 2.07001ZM13.4627 2.07005L13.6465 1.60507L13.6465 1.60507L13.4627 2.07005ZM14.6337 3.31169C14.6126 3.10146 14.5947 2.91945 14.5695 2.7696C14.5435 2.61482 14.5051 2.46166 14.4281 2.31242L13.5394 2.77081C13.5497 2.79088 13.5658 2.8308 13.5833 2.93519C13.6017 3.04449 13.6163 3.18775 13.6386 3.41119L14.6337 3.31169ZM14.8286 4.51467C14.8173 4.49983 14.7806 4.43872 14.7421 4.22451C14.7044 4.01507 14.6755 3.73051 14.6337 3.31169L13.6386 3.41119C13.6788 3.81323 13.7116 4.14432 13.7579 4.40161C13.8033 4.65413 13.8731 4.91083 14.0335 5.12119L14.8286 4.51467ZM15.2928 4.70694C15.1148 4.73089 14.9375 4.65749 14.8286 4.51467L14.0335 5.12118C14.3604 5.54967 14.892 5.76987 15.4261 5.69801L15.2928 4.70694ZM16.2813 3.99415C15.9555 4.26069 15.7339 4.44152 15.5592 4.56296C15.3804 4.68717 15.3113 4.70445 15.2928 4.70694L15.4261 5.69801C15.6883 5.66274 15.9192 5.53055 16.1298 5.38412C16.3445 5.23493 16.6018 5.02396 16.9145 4.76811L16.2813 3.99415ZM17.1332 3.4329C16.9732 3.484 16.8377 3.56512 16.7099 3.65619C16.5861 3.74436 16.4448 3.86037 16.2813 3.99415L16.9145 4.76811C17.0883 4.62591 17.1999 4.53493 17.2902 4.47062C17.3764 4.4092 17.416 4.39234 17.4375 4.38547L17.1332 3.4329ZM18.186 3.48541C17.853 3.3411 17.4789 3.32244 17.1332 3.4329L17.4375 4.38547C17.5527 4.34865 17.6774 4.35487 17.7884 4.40297L18.186 3.48541ZM18.9778 4.12865C18.8285 3.97925 18.6993 3.84975 18.5849 3.74971C18.4668 3.64638 18.3401 3.55217 18.186 3.48541L17.7884 4.40297C17.8092 4.41195 17.8469 4.43267 17.9265 4.50236C18.01 4.57534 18.112 4.67697 18.2707 4.83575L18.9778 4.12865ZM19.8713 5.02211L18.9778 4.12865L18.2707 4.83575L19.1642 5.72922L19.8713 5.02211ZM20.5146 5.81396C20.4478 5.65988 20.3536 5.53314 20.2503 5.41502C20.1502 5.30065 20.0207 5.17151 19.8713 5.02211L19.1642 5.72922C19.323 5.88801 19.4246 5.99001 19.4976 6.07343C19.5673 6.1531 19.588 6.19082 19.597 6.21155L20.5146 5.81396ZM20.5671 6.86679C20.6775 6.52106 20.6589 6.147 20.5146 5.81396L19.597 6.21154C19.6451 6.32255 19.6513 6.44724 19.6145 6.56249L20.5671 6.86679ZM20.0058 7.71872C20.1396 7.5552 20.2556 7.41382 20.3438 7.29006C20.4348 7.16224 20.516 7.02676 20.5671 6.8668L19.6145 6.56249C19.6076 6.58401 19.5908 6.62359 19.5293 6.7098C19.465 6.80008 19.374 6.91168 19.2318 7.08548L20.0058 7.71872ZM19.293 8.70721C19.2955 8.68872 19.3128 8.61958 19.437 8.44084C19.5584 8.2661 19.7393 8.0445 20.0058 7.71872L19.2318 7.08548C18.976 7.3982 18.765 7.65547 18.6158 7.87015C18.4694 8.08084 18.3372 8.31168 18.3019 8.5739L19.293 8.70721ZM19.4853 9.1714C19.3424 9.06244 19.2691 8.88524 19.293 8.70721L18.3019 8.5739C18.2301 9.108 18.4503 9.63959 18.8787 9.96645L19.4853 9.1714ZM20.6883 9.36633C20.2694 9.32445 19.9849 9.29562 19.7754 9.25793C19.5612 9.21938 19.5001 9.18271 19.4853 9.1714L18.8787 9.96645C19.0891 10.1269 19.3458 10.1967 19.5983 10.2421C19.8556 10.2884 20.1867 10.3212 20.5888 10.3614L20.6883 9.36633ZM21.6876 9.57187C21.5384 9.49489 21.3852 9.45645 21.2304 9.43046C21.0805 9.4053 20.8985 9.38736 20.6883 9.36633L20.5888 10.3614C20.8122 10.3837 20.9555 10.3983 21.0648 10.4167C21.1692 10.4342 21.2091 10.4503 21.2292 10.4606L21.6876 9.57187ZM22.3949 10.3534C22.2615 10.0159 22.0102 9.73825 21.6876 9.57187L21.2292 10.4606C21.3367 10.5161 21.4205 10.6086 21.465 10.7211L22.3949 10.3534ZM22.5 11.3682C22.5 11.157 22.5003 10.9741 22.4901 10.8224C22.4797 10.6658 22.4567 10.5096 22.3949 10.3534L21.465 10.7211C21.4733 10.7421 21.4853 10.7835 21.4924 10.8891C21.4997 10.9997 21.5 11.1437 21.5 11.3682H22.5ZM22.5 12.6319V11.3682H21.5V12.6319H22.5ZM22.395 13.6464C22.4567 13.4903 22.4797 13.3341 22.4901 13.1775C22.5003 13.026 22.5 12.8431 22.5 12.6319H21.5C21.5 12.8564 21.4997 13.0003 21.4924 13.1109C21.4853 13.2165 21.4733 13.2578 21.465 13.2788L22.395 13.6464ZM21.6875 14.4282C22.0101 14.2618 22.2615 13.984 22.395 13.6464L21.465 13.2788C21.4205 13.3914 21.3367 13.4839 21.2292 13.5394L21.6875 14.4282ZM20.6884 14.6337C20.8986 14.6126 21.0805 14.5947 21.2304 14.5695C21.3851 14.5436 21.5383 14.5051 21.6875 14.4282L21.2292 13.5394C21.2091 13.5498 21.1692 13.5658 21.0648 13.5833C20.9555 13.6017 20.8123 13.6163 20.5889 13.6386L20.6884 14.6337ZM20.7208 14.6293L20.7208 14.6293L20.5564 13.6429L20.5564 13.6429L20.7208 14.6293ZM19.4857 14.8285C19.5006 14.8172 19.5617 14.7805 19.7758 14.742C19.9852 14.7043 20.2697 14.6755 20.6884 14.6337L20.5889 13.6386C20.1869 13.6788 19.856 13.7115 19.5987 13.7578C19.3463 13.8032 19.0897 13.8729 18.8794 14.0333L19.4857 14.8285ZM19.2934 15.2929C19.2694 15.1148 19.3428 14.9375 19.4857 14.8285L18.8794 14.0333C18.4507 14.3602 18.2304 14.8921 18.3023 15.4264L19.2934 15.2929ZM20.006 16.281C19.7395 15.9553 19.5588 15.7338 19.4373 15.5591C19.3132 15.3805 19.2959 15.3113 19.2934 15.2929L18.3023 15.4264C18.3377 15.6885 18.4698 15.9192 18.6162 16.1298C18.7653 16.3444 18.9762 16.6016 19.232 16.9142L20.006 16.281ZM20.5671 17.1326C20.5159 16.9727 20.4348 16.8372 20.3438 16.7095C20.2557 16.5858 20.1397 16.4444 20.006 16.281L19.232 16.9142C19.3741 17.0879 19.4651 17.1995 19.5294 17.2897C19.5908 17.3759 19.6076 17.4155 19.6145 17.437L20.5671 17.1326ZM20.5145 18.1858C20.6589 17.8526 20.6776 17.4784 20.5671 17.1326L19.6145 17.437C19.6514 17.5523 19.6451 17.677 19.597 17.7881L20.5145 18.1858ZM19.8715 18.9773C20.0208 18.828 20.1503 18.6989 20.2503 18.5846C20.3536 18.4665 20.4478 18.3398 20.5145 18.1858L19.597 17.7881C19.588 17.8088 19.5673 17.8465 19.4976 17.9261C19.4247 18.0095 19.3231 18.1115 19.1644 18.2702L19.8715 18.9773ZM18.9779 19.8709L19.8715 18.9773L19.1644 18.2702L18.2708 19.1638L18.9779 19.8709ZM18.1861 20.5141C18.3401 20.4474 18.4669 20.3532 18.585 20.2498C18.6994 20.1498 18.8285 20.0203 18.9779 19.8709L18.2708 19.1638C18.112 19.3226 18.01 19.4242 17.9266 19.4972C17.8469 19.5669 17.8092 19.5876 17.7885 19.5966L18.1861 20.5141ZM17.1332 20.5667C17.4789 20.6771 17.853 20.6585 18.1861 20.5141L17.7885 19.5966C17.6775 19.6447 17.5528 19.6509 17.4375 19.6141L17.1332 20.5667ZM16.2813 20.0054C16.4448 20.1392 16.5862 20.2552 16.7099 20.3434C16.8378 20.4344 16.9732 20.5156 17.1332 20.5667L17.4375 19.6141C17.416 19.6072 17.3764 19.5904 17.2902 19.5289C17.1999 19.4646 17.0883 19.3736 16.9145 19.2314L16.2813 20.0054ZM16.2856 20.0088L16.2856 20.0089L16.9103 19.228L16.9103 19.228L16.2856 20.0088ZM15.2928 19.2926C15.3113 19.2951 15.3805 19.3124 15.5592 19.4366C15.7339 19.558 15.9555 19.7389 16.2813 20.0054L16.9145 19.2314C16.6018 18.9756 16.3446 18.7646 16.1299 18.6154C15.9192 18.469 15.6884 18.3368 15.4262 18.3015L15.2928 19.2926ZM14.8286 19.4849C14.9376 19.3421 15.1148 19.2687 15.2928 19.2926L15.4262 18.3015C14.892 18.2297 14.3604 18.4499 14.0336 18.8784L14.8286 19.4849ZM14.6337 20.6881C14.6756 20.2692 14.7044 19.9846 14.7421 19.7751C14.7807 19.5608 14.8173 19.4997 14.8286 19.4849L14.0336 18.8784C13.8731 19.0887 13.8033 19.3455 13.7579 19.598C13.7116 19.8553 13.6789 20.1865 13.6386 20.5886L14.6337 20.6881ZM14.4281 21.6877C14.5051 21.5385 14.5435 21.3852 14.5695 21.2304C14.5947 21.0805 14.6127 20.8984 14.6337 20.6881L13.6386 20.5886C13.6163 20.8121 13.6017 20.9554 13.5833 21.0648C13.5658 21.1692 13.5497 21.2092 13.5394 21.2292L14.4281 21.6877ZM13.6467 22.3949C13.9841 22.2614 14.2617 22.0102 14.4281 21.6877L13.5394 21.2292C13.4839 21.3367 13.3914 21.4205 13.2789 21.465L13.6467 22.3949ZM12.6316 22.5C12.843 22.5 13.0259 22.5003 13.1776 22.4901C13.3342 22.4797 13.4905 22.4566 13.6467 22.3949L13.2789 21.465C13.2579 21.4733 13.2166 21.4853 13.1109 21.4924C13.0003 21.4997 12.8563 21.5 12.6316 21.5V22.5ZM11.3682 22.5H12.6316V21.5H11.3682V22.5ZM10.3534 22.3949C10.5096 22.4567 10.6658 22.4797 10.8224 22.4901C10.9741 22.5003 11.157 22.5 11.3682 22.5V21.5C11.1437 21.5 10.9997 21.4997 10.8891 21.4924C10.7835 21.4853 10.7421 21.4733 10.7211 21.465L10.3534 22.3949ZM9.57187 21.6876C9.73824 22.0102 10.0159 22.2615 10.3534 22.3949L10.7211 21.465C10.6086 21.4205 10.5161 21.3367 10.4606 21.2292L9.57187 21.6876ZM9.36634 20.6883C9.38736 20.8985 9.4053 21.0805 9.43046 21.2304C9.45645 21.3852 9.49489 21.5384 9.57187 21.6876L10.4606 21.2292C10.4503 21.2091 10.4342 21.1692 10.4167 21.0648C10.3983 20.9555 10.3837 20.8122 10.3614 20.5888L9.36634 20.6883ZM9.17139 19.4853C9.18271 19.5001 9.21938 19.5612 9.25793 19.7754C9.29562 19.9849 9.32445 20.2695 9.36634 20.6883L10.3614 20.5888C10.3212 20.1867 10.2884 19.8556 10.2421 19.5983C10.1967 19.3458 10.1269 19.0891 9.96644 18.8787L9.17139 19.4853ZM8.70722 19.293C8.88525 19.2691 9.06244 19.3425 9.17139 19.4853L9.96644 18.8787C9.63958 18.4503 9.10801 18.2301 8.57392 18.3019L8.70722 19.293ZM7.71869 20.0058C8.04448 19.7393 8.26609 19.5584 8.44084 19.437C8.61958 19.3128 8.68872 19.2955 8.70722 19.293L8.57392 18.3019C8.3117 18.3372 8.08085 18.4694 7.87015 18.6158C7.65547 18.765 7.39819 18.976 7.08546 19.2319L7.71869 20.0058ZM7.73424 19.9926L7.73426 19.9926L7.06989 19.2452L7.06988 19.2452L7.73424 19.9926ZM6.86673 20.5671C7.0267 20.516 7.16218 20.4349 7.29001 20.3438C7.41377 20.2557 7.55516 20.1396 7.71868 20.0058L7.08544 19.2319C6.91164 19.3741 6.80003 19.4651 6.70976 19.5294C6.62354 19.5908 6.58395 19.6077 6.56244 19.6145L6.86673 20.5671ZM5.81394 20.5146C6.14696 20.6589 6.521 20.6776 6.86673 20.5671L6.56244 19.6145C6.44719 19.6514 6.32251 19.6451 6.21151 19.597L5.81394 20.5146ZM5.02205 19.8713C5.17146 20.0207 5.3006 20.1503 5.41497 20.2503C5.5331 20.3536 5.65985 20.4479 5.81394 20.5146L6.21151 19.597C6.19078 19.5881 6.15306 19.5673 6.07339 19.4977C5.98996 19.4247 5.88796 19.323 5.72916 19.1642L5.02205 19.8713ZM4.12861 18.9779L5.02205 19.8713L5.72916 19.1642L4.83572 18.2708L4.12861 18.9779ZM3.48535 18.186C3.55212 18.3401 3.64632 18.4669 3.74966 18.585C3.84971 18.6994 3.97922 18.8285 4.12861 18.9779L4.83572 18.2708C4.67693 18.112 4.57529 18.01 4.50232 17.9266C4.43262 17.8469 4.4119 17.8092 4.40292 17.7885L3.48535 18.186ZM3.43284 17.1332C3.3224 17.479 3.34106 17.853 3.48535 18.186L4.40292 17.7885C4.35482 17.6775 4.34861 17.5528 4.38542 17.4375L3.43284 17.1332ZM3.99413 16.2813C3.86033 16.4448 3.74432 16.5862 3.65614 16.7099C3.56507 16.8378 3.48395 16.9733 3.43284 17.1332L4.38542 17.4375C4.39229 17.416 4.40915 17.3764 4.47058 17.2902C4.53489 17.1999 4.62588 17.0883 4.76808 16.9145L3.99413 16.2813ZM4.70694 15.2928C4.70445 15.3113 4.68716 15.3804 4.56295 15.5592C4.4415 15.7339 4.26067 15.9555 3.99413 16.2813L4.76808 16.9145C5.02394 16.6018 5.23491 16.3445 5.38411 16.1298C5.53054 15.9192 5.66274 15.6883 5.69801 15.4261L4.70694 15.2928ZM4.51466 14.8286C4.65749 14.9375 4.73088 15.1147 4.70694 15.2928L5.69801 15.4261C5.76986 14.892 5.54966 14.3604 5.12119 14.0335L4.51466 14.8286ZM3.31168 14.6337C3.73051 14.6755 4.01507 14.7044 4.2245 14.7421C4.43871 14.7806 4.49983 14.8173 4.51466 14.8286L5.12119 14.0335C4.91083 13.8731 4.65413 13.8033 4.40161 13.7579C4.14432 13.7116 3.81322 13.6788 3.41118 13.6386L3.31168 14.6337ZM2.31242 14.4281C2.46166 14.5051 2.61482 14.5435 2.7696 14.5695C2.91945 14.5947 3.10145 14.6126 3.31168 14.6337L3.41118 13.6386C3.18774 13.6163 3.04449 13.6017 2.93519 13.5833C2.8308 13.5658 2.79088 13.5497 2.77081 13.5394L2.31242 14.4281ZM1.60507 13.6465C1.73852 13.9841 1.98984 14.2618 2.31242 14.4281L2.77081 13.5394C2.66328 13.4839 2.57951 13.3914 2.53502 13.2789L1.60507 13.6465ZM1.5 12.6318C1.5 12.8431 1.49974 13.0259 1.50987 13.1776C1.52033 13.3341 1.54333 13.4904 1.60507 13.6465L2.53502 13.2789C2.52672 13.2578 2.5147 13.2165 2.50764 13.1109C2.50026 13.0003 2.5 12.8563 2.5 12.6318H1.5ZM1.5 11.3683V12.6318H2.5V11.3683H1.5ZM1.60513 10.3533C1.54335 10.5095 1.52034 10.6658 1.50987 10.8224C1.49974 10.9741 1.5 11.157 1.5 11.3683H2.5C2.5 11.1437 2.50026 10.9997 2.50765 10.8891C2.51471 10.7834 2.52673 10.7421 2.53504 10.7211L1.60513 10.3533ZM2.31228 9.57193C1.98981 9.73829 1.73857 10.0159 1.60513 10.3533L2.53504 10.7211C2.57952 10.6086 2.66327 10.5161 2.77076 10.4606L2.31228 9.57193ZM3.3118 9.36633C3.10152 9.38735 2.91947 9.4053 2.76957 9.43047C2.61476 9.45647 2.46156 9.49492 2.31229 9.57193L2.77076 10.4606C2.79084 10.4503 2.83076 10.4342 2.93518 10.4167C3.04452 10.3983 3.1878 10.3837 3.4113 10.3614L3.3118 9.36633ZM3.36155 9.36384H3.36155V10.3638H3.36155V9.36384ZM3.36156 9.36384H3.36155V10.3638H3.36156V9.36384ZM4.51509 9.17132C4.50025 9.18265 4.43914 9.21933 4.22487 9.25789C4.01538 9.2956 3.73074 9.32443 3.31181 9.36633L3.41131 10.3614C3.81346 10.3211 4.14464 10.2884 4.402 10.2421C4.65458 10.1966 4.91135 10.1268 5.12174 9.9663L4.51509 9.17132ZM4.70732 8.70725C4.73124 8.88524 4.65786 9.06238 4.5151 9.17132L5.12174 9.9663C5.55004 9.63946 5.77016 9.10804 5.69841 8.57408L4.70732 8.70725ZM3.9943 7.71844C4.26093 8.04432 4.44182 8.26599 4.5633 8.4408C4.68756 8.61959 4.70484 8.68875 4.70732 8.70725L5.69841 8.57408C5.66317 8.31178 5.53094 8.08087 5.38448 7.87012C5.23524 7.65537 5.0242 7.39802 4.76826 7.0852L3.9943 7.71844ZM3.43283 6.86614C3.48393 7.02617 3.56508 7.16171 3.65618 7.28959C3.74439 7.4134 3.86045 7.55484 3.9943 7.71844L4.76826 7.0852C4.62599 6.91132 4.53497 6.79966 4.47063 6.70935C4.40918 6.6231 4.39232 6.58349 4.38545 6.56197L3.43283 6.86614ZM3.48532 5.81371C3.34112 6.14663 3.32247 6.52052 3.43283 6.86614L4.38544 6.56197C4.34866 6.44676 4.35488 6.32213 4.40294 6.21116L3.48532 5.81371ZM4.12878 5.02153C3.97933 5.17099 3.84977 5.30018 3.74969 5.41459C3.64632 5.53276 3.55209 5.65955 3.48532 5.81371L4.40294 6.21116C4.41192 6.19042 4.43264 6.15269 4.50236 6.07299C4.57536 5.98953 4.67704 5.88749 4.83589 5.72864L4.12878 5.02153ZM5.0221 4.12822L4.12878 5.02154L4.83589 5.72864L5.72921 4.83532L5.0221 4.12822ZM5.0221 4.12821L5.0221 4.12822L5.72921 4.83532L5.72921 4.83532L5.0221 4.12821ZM5.81398 3.48494C5.65989 3.55171 5.53315 3.64591 5.41502 3.74925C5.30065 3.8493 5.1715 3.97881 5.0221 4.12821L5.72921 4.83532C5.888 4.67653 5.99001 4.57489 6.07343 4.50191C6.15311 4.43221 6.19082 4.41149 6.21155 4.40251L5.81398 3.48494ZM6.86677 3.43243C6.52105 3.32199 6.147 3.34065 5.81398 3.48494L6.21155 4.40251C6.32256 4.35442 6.44724 4.3482 6.56248 4.38501L6.86677 3.43243ZM7.71882 3.99378C7.55526 3.85997 7.41386 3.74394 7.29008 3.65575C7.16225 3.56467 7.02675 3.48354 6.86677 3.43243L6.56248 4.38501C6.58399 4.39188 6.62359 4.40874 6.70982 4.47018C6.80011 4.53451 6.91175 4.62551 7.08558 4.76774L7.71882 3.99378ZM8.70718 4.70654C8.6887 4.70405 8.61957 4.68676 8.44085 4.56255C8.26613 4.44111 8.04455 4.26029 7.71882 3.99378L7.08558 4.76774C7.39826 5.02357 7.6555 5.23451 7.87013 5.38369C8.08078 5.5301 8.31156 5.66229 8.57371 5.69759L8.70718 4.70654ZM9.17149 4.51422C9.06252 4.6571 8.88526 4.73052 8.70718 4.70654L8.57371 5.69759C9.10797 5.76954 9.63975 5.54927 9.96665 5.12062L9.17149 4.51422ZM9.36635 3.31155C9.32448 3.73026 9.29566 4.01474 9.25799 4.22412C9.21945 4.43828 9.1828 4.49938 9.17149 4.51422L9.96665 5.12062C10.127 4.9103 10.1968 4.65367 10.2422 4.40121C10.2885 4.14399 10.3212 3.81299 10.3614 3.41106L9.36635 3.31155ZM9.57179 2.31256C9.49485 2.46176 9.45643 2.61489 9.43046 2.76962C9.4053 2.91943 9.38737 3.10139 9.36635 3.31155L10.3614 3.41106C10.3837 3.18768 10.3983 3.04447 10.4167 2.93519C10.4342 2.83083 10.4502 2.79092 10.4606 2.77085L9.57179 2.31256ZM10.3536 1.60501C10.016 1.73847 9.73818 1.98986 9.57179 2.31255L10.4606 2.77085C10.5161 2.66329 10.6086 2.57949 10.7212 2.535L10.3536 1.60501ZM11.3681 1.5C11.1569 1.5 10.974 1.49974 10.8225 1.50986C10.6659 1.52031 10.5097 1.54331 10.3536 1.60501L10.7212 2.535C10.7422 2.5267 10.7835 2.51469 10.8891 2.50764C10.9997 2.50026 11.1436 2.5 11.3681 2.5V1.5ZM12.6318 1.5H11.3681V2.5H12.6318V1.5ZM13.6465 1.60507C13.4904 1.54333 13.3341 1.52033 13.1776 1.50987C13.0259 1.49974 12.8431 1.5 12.6318 1.5V2.5C12.8563 2.5 13.0003 2.50026 13.1109 2.50764C13.2165 2.5147 13.2578 2.52672 13.2789 2.53502L13.6465 1.60507ZM14.4281 2.31242C14.2618 1.98984 13.9841 1.73852 13.6465 1.60507L13.2789 2.53502C13.3914 2.57951 13.4839 2.66328 13.5394 2.7708L14.4281 2.31242ZM15.5 12C15.5 13.933 13.933 15.5 12 15.5V16.5C14.4853 16.5 16.5 14.4853 16.5 12H15.5ZM12 8.5C13.933 8.5 15.5 10.067 15.5 12H16.5C16.5 9.51472 14.4853 7.5 12 7.5V8.5ZM8.5 12C8.5 10.067 10.067 8.5 12 8.5V7.5C9.51472 7.5 7.5 9.51472 7.5 12H8.5ZM12 15.5C10.067 15.5 8.5 13.933 8.5 12H7.5C7.5 14.4853 9.51472 16.5 12 16.5V15.5Z"
              fill="#1B1B1B"/>
    </g>
    <g id="website">
        <g id="style=linear" clip-path="url(#clip0_1_1825)">
            <g id="web">
                <path id="vector"
                      d="M7.8 12L7.05 12L7.8 12ZM16.2 12H16.95H16.2ZM12 16.2V16.95V16.2ZM14.1729 22.2749L14.3273 23.0088L14.1729 22.2749ZM9.82712 22.2749L9.67269 23.0088L9.82712 22.2749ZM2.27554 8.03225L1.58122 7.74867H1.58122L2.27554 8.03225ZM1.7251 14.1729L0.991173 14.3273L1.7251 14.1729ZM9.82712 1.7251L9.67269 0.991173L9.82712 1.7251ZM14.1729 1.7251L14.3273 0.991174L14.1729 1.7251ZM21.6399 8.07014L21.8576 8.78785L21.6399 8.07014ZM2.35887 8.06976L2.14116 8.78747L2.35887 8.06976ZM21.0312 8.3185C21.4944 9.45344 21.75 10.6959 21.75 12H23.25C23.25 10.4983 22.9553 9.06352 22.42 7.75174L21.0312 8.3185ZM21.75 12C21.75 12.6927 21.6779 13.3678 21.541 14.0184L23.0088 14.3273C23.167 13.5757 23.25 12.7972 23.25 12H21.75ZM21.541 14.0184C20.7489 17.7827 17.7828 20.7489 14.0184 21.541L14.3273 23.0088C18.6735 22.0943 22.0943 18.6735 23.0088 14.3273L21.541 14.0184ZM14.0184 21.541C13.3678 21.6779 12.6927 21.75 12 21.75V23.25C12.7972 23.25 13.5757 23.167 14.3273 23.0088L14.0184 21.541ZM12 21.75C11.3072 21.75 10.6322 21.6779 9.98156 21.541L9.67269 23.0088C10.4242 23.167 11.2028 23.25 12 23.25V21.75ZM2.25 12C2.25 10.6949 2.50601 9.45149 2.96986 8.31584L1.58122 7.74867C1.0451 9.06127 0.75 10.4971 0.75 12H2.25ZM9.98156 21.541C6.21724 20.7489 3.25112 17.7827 2.45903 14.0184L0.991173 14.3273C1.90571 18.6735 5.32647 22.0943 9.67269 23.0088L9.98156 21.541ZM2.45903 14.0184C2.32213 13.3678 2.25 12.6927 2.25 12H0.75C0.75 12.7972 0.83303 13.5757 0.991173 14.3273L2.45903 14.0184ZM2.96986 8.31584C4.17707 5.36016 6.79381 3.1298 9.98155 2.45903L9.67269 0.991173C5.99032 1.76602 2.97369 4.33941 1.58122 7.74867L2.96986 8.31584ZM9.98155 2.45903C10.6322 2.32213 11.3072 2.25 12 2.25V0.75C11.2028 0.75 10.4242 0.83303 9.67269 0.991173L9.98155 2.45903ZM12 2.25C12.6927 2.25 13.3678 2.32213 14.0184 2.45903L14.3273 0.991174C13.5757 0.833031 12.7972 0.75 12 0.75V2.25ZM14.0184 2.45903C17.2071 3.13 19.8245 5.3615 21.0312 8.3185L22.42 7.75174C21.0281 4.34096 18.0108 1.76625 14.3273 0.991174L14.0184 2.45903ZM13.4584 1.95309C13.7482 2.8614 14.8215 6.35621 15.2615 9.5682L16.7476 9.36461C16.289 6.01664 15.1813 2.41835 14.8874 1.49712L13.4584 1.95309ZM15.2615 9.5682C15.3795 10.4292 15.45 11.2568 15.45 12L16.95 12C16.95 11.1681 16.8715 10.269 16.7476 9.36461L15.2615 9.5682ZM21.4222 7.35242C20.2692 7.70212 18.1033 8.3164 15.8685 8.72886L16.1407 10.204C18.4546 9.7769 20.6809 9.14473 21.8576 8.78785L21.4222 7.35242ZM15.8685 8.72886C14.5129 8.97904 13.1579 9.15 12 9.15L12 10.65C13.2874 10.65 14.743 10.4619 16.1407 10.204L15.8685 8.72886ZM15.45 12C15.45 13.1009 15.2954 14.3808 15.0647 15.671L16.5413 15.935C16.7797 14.6019 16.95 13.2252 16.95 12L15.45 12ZM15.0647 15.671C14.5591 18.4992 13.7097 21.2593 13.4584 22.0469L14.8874 22.5029C15.145 21.6956 16.0181 18.8613 16.5413 15.935L15.0647 15.671ZM22.0469 13.4584C21.2593 13.7097 18.4992 14.5591 15.671 15.0647L15.935 16.5413C18.8613 16.0181 21.6956 15.145 22.5029 14.8874L22.0469 13.4584ZM15.671 15.0647C14.3808 15.2954 13.1009 15.45 12 15.45L12 16.95C13.2252 16.95 14.6019 16.7797 15.935 16.5413L15.671 15.0647ZM12 15.45C10.8991 15.45 9.61923 15.2954 8.32897 15.0647L8.06496 16.5413C9.39807 16.7797 10.7748 16.95 12 16.95L12 15.45ZM8.32897 15.0647C5.50076 14.5591 2.74066 13.7097 1.95309 13.4584L1.49712 14.8874C2.30437 15.145 5.13873 16.0181 8.06496 16.5413L8.32897 15.0647ZM7.05 12C7.05 13.2252 7.22032 14.6019 7.45867 15.935L8.93526 15.671C8.70456 14.3808 8.55 13.1009 8.55 12L7.05 12ZM7.45867 15.935C7.98188 18.8613 8.85504 21.6956 9.11261 22.5029L10.5416 22.0469C10.2903 21.2593 9.44094 18.4992 8.93526 15.671L7.45867 15.935ZM9.11261 1.49712C8.81867 2.41835 7.711 6.01664 7.25235 9.36461L8.73846 9.5682C9.17849 6.35621 10.2518 2.8614 10.5416 1.95309L9.11261 1.49712ZM7.25235 9.36461C7.12846 10.269 7.05 11.1681 7.05 12L8.55 12C8.55 11.2568 8.62052 10.4292 8.73846 9.5682L7.25235 9.36461ZM12 9.15C10.8421 9.15 9.4871 8.97904 8.13152 8.72886L7.85929 10.204C9.25697 10.4619 10.7126 10.65 12 10.65L12 9.15ZM8.13152 8.72886C5.89586 8.31625 3.72921 7.70168 2.57657 7.35205L2.14116 8.78747C3.3175 9.14428 5.54457 9.77675 7.85929 10.204L8.13152 8.72886ZM21.38 7.3695C21.3919 7.3633 21.4065 7.35719 21.4222 7.35242L21.8576 8.78785C21.933 8.76498 22.0039 8.73569 22.0712 8.70074L21.38 7.3695ZM1.88425 8.67209C1.96322 8.72038 2.04888 8.75948 2.14116 8.78747L2.57657 7.35205C2.60983 7.36214 2.64048 7.3763 2.66683 7.39242L1.88425 8.67209Z"
                      fill="#000000"/>
            </g>
        </g>
        <defs>
            <clipPath id="clip0_1_1825">
                <rect width="24" height="24" fill="white"/>
            </clipPath>
        </defs>
    </g>
    <g id="link">
        <path d="M15.7285 3.88396C17.1629 2.44407 19.2609 2.41383 20.4224 3.57981C21.586 4.74798 21.5547 6.85922 20.1194 8.30009L17.6956 10.7333C17.4033 11.0268 17.4042 11.5017 17.6976 11.794C17.9911 12.0863 18.466 12.0854 18.7583 11.7919L21.1821 9.35869C23.0934 7.43998 23.3334 4.37665 21.4851 2.5212C19.6346 0.663551 16.5781 0.905664 14.6658 2.82536L9.81817 7.69182C7.90688 9.61053 7.66692 12.6739 9.51519 14.5293C9.80751 14.8228 10.2824 14.8237 10.5758 14.5314C10.8693 14.2391 10.8702 13.7642 10.5779 13.4707C9.41425 12.3026 9.44559 10.1913 10.8809 8.75042L15.7285 3.88396Z"
              fill="#1C274C"/>
        <path d="M14.4851 9.47074C14.1928 9.17728 13.7179 9.17636 13.4244 9.46868C13.131 9.76101 13.1301 10.2359 13.4224 10.5293C14.586 11.6975 14.5547 13.8087 13.1194 15.2496L8.27178 20.1161C6.83745 21.556 4.73937 21.5863 3.57791 20.4203C2.41424 19.2521 2.44559 17.1408 3.88089 15.6999L6.30473 13.2667C6.59706 12.9732 6.59614 12.4984 6.30268 12.206C6.00922 11.9137 5.53434 11.9146 5.24202 12.2081L2.81818 14.6413C0.906876 16.5601 0.666916 19.6234 2.51519 21.4789C4.36567 23.3365 7.42221 23.0944 9.33449 21.1747L14.1821 16.3082C16.0934 14.3895 16.3334 11.3262 14.4851 9.47074Z"
              fill="#1C274C"/>
    </g>
</svg>