<svg width="48" height="48" viewBox="0 0 48 48" fill="none" xmlns="http://www.w3.org/2000/svg">
<path fill-rule="evenodd" clip-rule="evenodd" d="M24 2C11.8497 2 2 11.8497 2 24C2 36.1503 11.8497 46 24 46C36.1503 46 46 36.1503 46 24C46 11.8497 36.1503 2 24 2ZM5.02586 23H14.5165C14.7171 16.9263 16.7148 12.0193 18.7025 8.59227C19.4824 7.2475 20.2634 6.12597 20.9391 5.24526C12.2218 6.65709 5.49253 14.0002 5.02586 23ZM14.5661 26H5.10401C5.99733 34.5394 12.547 41.3956 20.9391 42.7547C20.2634 41.874 19.4824 40.7525 18.7025 39.4078C16.825 36.1708 14.9387 31.6136 14.5661 26ZM17.5736 26H30.4264C30.0604 30.9585 28.3858 35.0003 26.7025 37.9026C25.7508 39.5433 24.801 40.8115 24.095 41.6637L24 41.7776L23.905 41.6637C23.199 40.8115 22.2492 39.5433 21.2975 37.9026C19.6142 35.0003 17.9396 30.9585 17.5736 26ZM30.4817 23H17.5183C17.7172 17.5834 19.5024 13.1925 21.2975 10.0974C22.2492 8.4567 23.199 7.1885 23.905 6.33636L24 6.22248L24.095 6.33636C24.801 7.1885 25.7508 8.4567 26.7025 10.0974C28.4976 13.1925 30.2828 17.5834 30.4817 23ZM33.4339 26C33.0613 31.6136 31.175 36.1708 29.2975 39.4078C28.5176 40.7525 27.7366 41.874 27.0609 42.7547C35.453 41.3956 42.0027 34.5394 42.896 26H33.4339ZM42.9741 23H33.4835C33.2829 16.9263 31.2852 12.0193 29.2975 8.59227C28.5176 7.2475 27.7366 6.12597 27.0609 5.24526C35.7782 6.65709 42.5075 14.0002 42.9741 23Z" fill="#1F2328"/>
</svg>
